<svg width="447" height="447" viewBox="0 0 447 447" 
  xmlns="http://www.w3.org/2000/svg">
  <g class="chart-wrapper" transform="translate(223.5,223.5)">
    <g class="beams">
      <line stroke="#ccc" x1="26.43405370092522" y1="-221.93127495902107" x2="32.976481991904215" y2="-276.8592655113788"></line>
      <line stroke="#ccc" x1="-138.6088858833401" y1="175.32776948954552" x2="-172.91458513946677" y2="218.72139243820806"></line>
      <line stroke="#ccc" x1="2.7370855960943343e-14" y1="-223.5" x2="3.4145142811276825e-14" y2="-278.81625"></line>
    </g>
    <g class="arcs">
      <path d="M5.987374741456356e-15,-97.78125A97.78125,97.78125,0,1,1,-5.987374741456356e-15,97.78125A97.78125,97.78125,0,1,1,5.987374741456356e-15,-97.78125M-1.0264070985353754e-14,-55.875A55.875,55.875,0,1,0,1.0264070985353754e-14,55.875A55.875,55.875,0,1,0,-1.0264070985353754e-14,-55.875Z" style="fill: transparent; opacity: 1;">
        <title></title>
      </path>
      <path d="M8.553392487794795e-15,-139.6875A139.6875,139.6875,0,0,1,16.52128356307828,-138.70704684938815L11.564898494154797,-97.0949327945717A97.78125,97.78125,0,0,0,5.987374741456356e-15,-97.78125Z" style="fill: rgb(31, 119, 180); opacity: 0.8;">
        <title>go (2%)</title>
      </path>
      <path d="M16.52128356307828,-138.70704684938815A139.6875,139.6875,0,1,1,-86.63055367708756,109.57985593096593L-60.641387573961296,76.70589915167615A97.78125,97.78125,0,1,0,11.564898494154797,-97.0949327945717Z" style="fill: rgb(255, 127, 14); opacity: 0.8;">
        <title>http (59%)</title>
      </path>
      <path d="M-86.63055367708756,109.57985593096593A139.6875,139.6875,0,0,1,-2.5660177463384385e-14,-139.6875L-1.7962124224369068e-14,-97.78125A97.78125,97.78125,0,0,0,-60.641387573961296,76.70589915167615Z" style="fill: rgb(44, 160, 44); opacity: 0.8;">
        <title>prometheus (39%)</title>
      </path>
      <path d="M1.1119410234133233e-14,-181.59375A181.59375,181.59375,0,0,1,21.477668632001766,-180.31916090420458L16.52128356307828,-138.70704684938815A139.6875,139.6875,0,0,0,8.553392487794795e-15,-139.6875Z" style="fill: rgb(0, 97, 176); opacity: 0.6;">
        <title>go » go_gc_duration_seconds (2%)</title>
      </path>
      <path d="M21.477668632001766,-180.31916090420458A181.59375,181.59375,0,0,1,93.66678892181552,-155.57256407264924L72.05137609370425,-119.67120313280711A139.6875,139.6875,0,0,0,16.52128356307828,-138.70704684938815Z" style="fill: rgb(255, 99, 0); opacity: 0.6;">
        <title>http » http_request_duration_microseconds (7%)</title>
      </path>
      <path d="M93.66678892181552,-155.57256407264924A181.59375,181.59375,0,0,1,149.31421135182453,-103.35161502098155L114.85708565524963,-79.50124232383196A139.6875,139.6875,0,0,0,72.05137609370425,-119.67120313280711Z" style="fill: rgb(255, 99, 0); opacity: 0.6;">
        <title>http » http_response_size_bytes (7%)</title>
      </path>
      <path d="M149.31421135182453,-103.35161502098155A181.59375,181.59375,0,0,1,176.6922977145641,-41.90610895096734L135.91715208812622,-32.23546842382103A139.6875,139.6875,0,0,0,114.85708565524963,-79.50124232383196Z" style="fill: rgb(255, 99, 0); opacity: 0.6;">
        <title>http » http_request_duration_microseconds_sum (6%)</title>
      </path>
      <path d="M176.6922977145641,-41.90610895096734A181.59375,181.59375,0,0,1,178.30770358042835,34.38972059986241L137.15977198494488,26.45363123066339A139.6875,139.6875,0,0,0,135.91715208812622,-32.23546842382103Z" style="fill: rgb(255, 99, 0); opacity: 0.6;">
        <title>http » http_request_size_bytes (7%)</title>
      </path>
      <path d="M178.30770358042835,34.38972059986241A181.59375,181.59375,0,0,1,153.55494926090972,96.93898904229371L118.11919173916132,74.56845310945671A139.6875,139.6875,0,0,0,137.15977198494488,26.45363123066339Z" style="fill: rgb(255, 99, 0); opacity: 0.6;">
        <title>http » http_request_size_bytes_sum (6%)</title>
      </path>
      <path d="M153.55494926090972,96.93898904229371A181.59375,181.59375,0,0,1,107.73090373846274,146.18598571257291L82.86992595266365,112.4507582404407A139.6875,139.6875,0,0,0,118.11919173916132,74.56845310945671Z" style="fill: rgb(255, 99, 0); opacity: 0.6;">
        <title>http » http_response_size_bytes_count (6%)</title>
      </path>
      <path d="M107.73090373846274,146.18598571257291A181.59375,181.59375,0,0,1,47.123686099754536,175.3728834439187L36.248989307503486,134.90221803378364A139.6875,139.6875,0,0,0,82.86992595266365,112.4507582404407Z" style="fill: rgb(255, 99, 0); opacity: 0.6;">
        <title>http » http_request_duration_microseconds_count (6%)</title>
      </path>
      <path d="M47.123686099754536,175.3728834439187A181.59375,181.59375,0,0,1,-19.949991377224027,180.4945646913258L-15.346147213249251,138.84197283948137A139.6875,139.6875,0,0,0,36.248989307503486,134.90221803378364Z" style="fill: rgb(255, 99, 0); opacity: 0.6;">
        <title>http » http_request_size_bytes_count (6%)</title>
      </path>
      <path d="M-19.949991377224027,180.4945646913258A181.59375,181.59375,0,0,1,-84.28606853699542,160.84821630854168L-64.83543733615032,123.72939716041667A139.6875,139.6875,0,0,0,-15.346147213249251,138.84197283948137Z" style="fill: rgb(255, 99, 0); opacity: 0.6;">
        <title>http » http_response_size_bytes_sum (6%)</title>
      </path>
      <path d="M-84.28606853699542,160.84821630854168A181.59375,181.59375,0,0,1,-112.6197197802139,142.45381271025568L-86.63055367708762,109.57985593096589A139.6875,139.6875,0,0,0,-64.83543733615032,123.72939716041667Z" style="fill: rgb(255, 99, 0); opacity: 0.6;">
        <title>http » http_requests_total (3%)</title>
      </path>
      <path d="M-112.61971978021384,142.4538127102557A181.59375,181.59375,0,0,1,-132.94318679294193,123.70286627398514L-102.26398984072458,95.15605097998856A139.6875,139.6875,0,0,0,-86.63055367708756,109.57985593096593Z" style="fill: rgb(0, 158, 0); opacity: 0.6;">
        <title>prometheus » prometheus_engine_query_duration_seconds (2%)</title>
      </path>
      <path d="M-132.94318679294193,123.70286627398514A181.59375,181.59375,0,0,1,-144.80584750565254,109.57899692565269L-111.38911346588655,84.29153609665592A139.6875,139.6875,0,0,0,-102.26398984072458,95.15605097998856Z" style="fill: rgb(0, 158, 0); opacity: 0.6;">
        <title>prometheus » prometheus_engine_query_duration_seconds_sum (2%)</title>
      </path>
      <path d="M-144.80584750565254,109.57899692565269A181.59375,181.59375,0,0,1,-156.74972459810863,91.6832257148471L-120.57671122931434,70.52555824219007A139.6875,139.6875,0,0,0,-111.38911346588655,84.29153609665592Z" style="fill: rgb(0, 158, 0); opacity: 0.6;">
        <title>prometheus » prometheus_evaluator_duration_seconds (2%)</title>
      </path>
      <path d="M-156.74972459810863,91.6832257148471A181.59375,181.59375,0,0,1,-165.24150815001948,75.30958785818407L-127.1088524230919,57.930452198603135A139.6875,139.6875,0,0,0,-120.57671122931434,70.52555824219007Z" style="fill: rgb(0, 158, 0); opacity: 0.6;">
        <title>prometheus » prometheus_engine_query_duration_seconds_count (2%)</title>
      </path>
      <path d="M-165.24150815001948,75.30958785818407A181.59375,181.59375,0,0,1,-174.76019431988627,49.34738615507504L-134.43091870760483,37.95952781159618A139.6875,139.6875,0,0,0,-127.1088524230919,57.930452198603135Z" style="fill: rgb(0, 158, 0); opacity: 0.6;">
        <title>prometheus » prometheus_local_storage_chunk_ops_total (2%)</title>
      </path>
      <path d="M-174.76019431988627,49.34738615507504A181.59375,181.59375,0,0,1,-178.3077035804283,34.389720599862585L-137.15977198494485,26.45363123066353A139.6875,139.6875,0,0,0,-134.43091870760483,37.95952781159618Z" style="fill: rgb(0, 158, 0); opacity: 0.6;">
        <title>prometheus » prometheus_local_storage_indexing_batch_sizes (1%)</title>
      </path>
      <path d="M-178.3077035804283,34.389720599862585A181.59375,181.59375,0,0,1,-180.57741394991177,19.185609456692127L-138.90570303839365,14.758161120532407A139.6875,139.6875,0,0,0,-137.15977198494485,26.45363123066353Z" style="fill: rgb(0, 158, 0); opacity: 0.6;">
        <title>prometheus » prometheus_local_storage_indexing_batch_duration_seconds (1%)</title>
      </path>
      <path d="M-180.57741394991177,19.185609456692127A181.59375,181.59375,0,0,1,-181.57910128577183,-2.306515838642595L-139.67623175828604,-1.774242952801996A139.6875,139.6875,0,0,0,-138.90570303839365,14.758161120532407Z" style="fill: rgb(0, 158, 0); opacity: 0.6;">
        <title>prometheus » prometheus_local_storage_maintain_series_duration_seconds (2%)</title>
      </path>
      <path d="M-181.57910128577183,-2.306515838642595A181.59375,181.59375,0,0,1,-178.01010540767174,-35.89836224414833L-136.93085031359365,-27.614124803191025A139.6875,139.6875,0,0,0,-139.67623175828604,-1.774242952801996Z" style="fill: rgb(0, 158, 0); opacity: 0.6;">
        <title>prometheus » prometheus_local_storage_series_chunks_persisted_bucket (3%)</title>
      </path>
      <path d="M-178.01010540767174,-35.89836224414833A181.59375,181.59375,0,0,1,-165.87329062408875,-73.90765519619121L-127.59483894160674,-56.85204245860862A139.6875,139.6875,0,0,0,-136.93085031359365,-27.614124803191025Z" style="fill: rgb(0, 158, 0); opacity: 0.6;">
        <title>prometheus » prometheus_local_storage_series_ops_total (4%)</title>
      </path>
      <path d="M-165.87329062408875,-73.90765519619121A181.59375,181.59375,0,0,1,-159.02799215933905,-87.67204656463596L-122.32922473795311,-67.44003581895073A139.6875,139.6875,0,0,0,-127.59483894160674,-56.85204245860862Z" style="fill: rgb(0, 158, 0); opacity: 0.6;">
        <title>prometheus » prometheus_sd_azure_refresh_duration_seconds (1%)</title>
      </path>
      <path d="M-159.02799215933905,-87.67204656463596A181.59375,181.59375,0,0,1,-151.04305817717707,-100.8081574851381L-116.18696782859774,-77.5447365270293A139.6875,139.6875,0,0,0,-122.32922473795311,-67.44003581895073Z" style="fill: rgb(0, 158, 0); opacity: 0.6;">
        <title>prometheus » prometheus_sd_ec2_refresh_duration_seconds (1%)</title>
      </path>
      <path d="M-151.04305817717707,-100.8081574851381A181.59375,181.59375,0,0,1,-136.04246601015296,-120.28606519850449L-104.64805077704075,-92.52774246038807A139.6875,139.6875,0,0,0,-116.18696782859774,-77.5447365270293Z" style="fill: rgb(0, 158, 0); opacity: 0.6;">
        <title>prometheus » prometheus_sd_consul_rpc_duration_seconds (2%)</title>
      </path>
      <path d="M-136.04246601015296,-120.28606519850449A181.59375,181.59375,0,0,1,-125.38146742650464,-131.3612487190909L-96.4472826357728,-101.04711439930068A139.6875,139.6875,0,0,0,-104.64805077704075,-92.52774246038807Z" style="fill: rgb(0, 158, 0); opacity: 0.6;">
        <title>prometheus » prometheus_sd_file_scan_duration_seconds (1%)</title>
      </path>
      <path d="M-125.38146742650464,-131.3612487190909A181.59375,181.59375,0,0,1,-113.8219529805586,-141.49506372574982L-87.55534844658355,-108.84235671211525A139.6875,139.6875,0,0,0,-96.4472826357728,-101.04711439930068Z" style="fill: rgb(0, 158, 0); opacity: 0.6;">
        <title>prometheus » prometheus_sd_gce_refresh_duration (1%)</title>
      </path>
      <path d="M-113.8219529805586,-141.49506372574982A181.59375,181.59375,0,0,1,-91.0187350591096,-157.13650087520122L-70.01441158393047,-120.87423144246249A139.6875,139.6875,0,0,0,-87.55534844658355,-108.84235671211525Z" style="fill: rgb(0, 158, 0); opacity: 0.6;">
        <title>prometheus » prometheus_sd_kubernetes_events_total (2%)</title>
      </path>
      <path d="M-91.0187350591096,-157.13650087520122A181.59375,181.59375,0,0,1,-77.40233040641643,-164.2716326293692L-59.54025415878186,-126.36279433028402A139.6875,139.6875,0,0,0,-70.01441158393047,-120.87423144246249Z" style="fill: rgb(0, 158, 0); opacity: 0.6;">
        <title>prometheus » prometheus_sd_marathon_refresh_duration_seconds (1%)</title>
      </path>
      <path d="M-77.40233040641643,-164.2716326293692A181.59375,181.59375,0,0,1,-63.23124073466556,-170.2295515890742L-48.63941594974274,-130.94580891467245A139.6875,139.6875,0,0,0,-59.54025415878186,-126.36279433028402Z" style="fill: rgb(0, 158, 0); opacity: 0.6;">
        <title>prometheus » prometheus_sd_openstack_refresh_duration_seconds (1%)</title>
      </path>
      <path d="M-63.23124073466556,-170.2295515890742A181.59375,181.59375,0,0,1,-48.607019719351655,-174.9675617737901L-37.39001516873204,-134.5904321336847A139.6875,139.6875,0,0,0,-48.63941594974274,-130.94580891467245Z" style="fill: rgb(0, 158, 0); opacity: 0.6;">
        <title>prometheus » prometheus_sd_triton_refresh_duration_seconds (1%)</title>
      </path>
      <path d="M-48.607019719351655,-174.9675617737901A181.59375,181.59375,0,0,1,-24.528293542390013,-179.92957748786287L-18.86791810953078,-138.40736729835606A139.6875,139.6875,0,0,0,-37.39001516873204,-134.5904321336847Z" style="fill: rgb(0, 158, 0); opacity: 0.6;">
        <title>prometheus » prometheus_target_interval_length_seconds (2%)</title>
      </path>
      <path d="M-24.528293542390013,-179.92957748786287A181.59375,181.59375,0,0,1,-3.33582307023997e-14,-181.59375L-2.5660177463384385e-14,-139.6875A139.6875,139.6875,0,0,0,-18.86791810953078,-138.40736729835606Z" style="fill: rgb(0, 158, 0); opacity: 0.6;">
        <title>prometheus » prometheus_target_sync_length_seconds (2%)</title>
      </path>
      <path d="M1.3685427980471672e-14,-223.5A223.5,223.5,0,0,1,3.7849724714245947,-223.4679484476254L3.075290133032483,-181.56770811369563A181.59375,181.59375,0,0,0,1.1119410234133233e-14,-181.59375Z" style="fill: rgb(0, 0, 176); opacity: 0.4;">
        <title>go » go_gc_duration_seconds » instance (0%)</title>
      </path>
      <path d="M3.7849724714245947,-223.4679484476254A223.5,223.5,0,0,1,7.568859356778443,-223.3718029833607L6.149698227382485,-181.48958992398056A181.59375,181.59375,0,0,0,3.075290133032483,-181.56770811369563Z" style="fill: rgb(0, 82, 176); opacity: 0.4;">
        <title>go » go_gc_duration_seconds » job (0%)</title>
      </path>
      <path d="M7.568859356778443,-223.3718029833607A223.5,223.5,0,0,1,26.43405370092525,-221.93127495902104L21.477668632001766,-180.31916090420458A181.59375,181.59375,0,0,0,6.149698227382485,-181.48958992398056Z" style="fill: rgb(0, 57, 176); opacity: 0.4;">
        <title>go » go_gc_duration_seconds » quantile (1%)</title>
      </path>
      <path d="M26.43405370092525,-221.93127495902104A223.5,223.5,0,0,1,98.674671283154,-200.53817403966136L80.17317041756262,-162.93726640722485A181.59375,181.59375,0,0,0,21.477668632001766,-180.31916090420458Z" style="fill: rgb(236, 255, 0); opacity: 0.4;">
        <title>http » http_request_duration_microseconds » handler (5%)</title>
      </path>
      <path d="M98.674671283154,-200.53817403966136A223.5,223.5,0,0,1,102.0566345574949,-198.838359837326L82.92101557796461,-161.55616736782738A181.59375,181.59375,0,0,0,80.17317041756262,-162.93726640722485Z" style="fill: rgb(255, 211, 0); opacity: 0.4;">
        <title>http » http_request_duration_microseconds » instance (0%)</title>
      </path>
      <path d="M102.0566345574949,-198.838359837326A223.5,223.5,0,0,1,105.40932647999958,-197.08151585329574L85.64507776499966,-160.1287316308028A181.59375,181.59375,0,0,0,82.92101557796461,-161.55616736782738Z" style="fill: rgb(255, 218, 0); opacity: 0.4;">
        <title>http » http_request_duration_microseconds » job (0%)</title>
      </path>
      <path d="M105.40932647999958,-197.08151585329574A223.5,223.5,0,0,1,115.28220174992684,-191.47392501249138L93.66678892181557,-155.57256407264924A181.59375,181.59375,0,0,0,85.64507776499966,-160.1287316308028Z" style="fill: rgb(255, 107, 0); opacity: 0.4;">
        <title>http » http_request_duration_microseconds » quantile (1%)</title>
      </path>
      <path d="M115.2822017499268,-191.47392501249138A223.5,223.5,0,0,1,172.35438568264695,-142.2891975378222L140.03793836715064,-115.60997299948052A181.59375,181.59375,0,0,0,93.66678892181552,-155.57256407264924Z" style="fill: rgb(255, 255, 0); opacity: 0.4;">
        <title>http » http_response_size_bytes » handler (5%)</title>
      </path>
      <path d="M172.35438568264695,-142.2891975378222A223.5,223.5,0,0,1,174.73933633160465,-139.34997071542693L141.9757107694288,-113.22185120628438A181.59375,181.59375,0,0,0,140.03793836715064,-115.60997299948052Z" style="fill: rgb(255, 211, 0); opacity: 0.4;">
        <title>http » http_response_size_bytes » instance (0%)</title>
      </path>
      <path d="M174.73933633160465,-139.34997071542693A223.5,223.5,0,0,1,177.07416915514548,-136.37077626095308L143.8727624385557,-110.80125571202437A181.59375,181.59375,0,0,0,141.9757107694288,-113.22185120628438Z" style="fill: rgb(255, 151, 0); opacity: 0.4;">
        <title>http » http_response_size_bytes » job (0%)</title>
      </path>
      <path d="M177.07416915514548,-136.37077626095308A223.5,223.5,0,0,1,183.77133704839937,-127.20198771813116L149.3142113518245,-103.35161502098157A181.59375,181.59375,0,0,0,143.8727624385557,-110.80125571202437Z" style="fill: rgb(230, 255, 0); opacity: 0.4;">
        <title>http » http_response_size_bytes » quantile (1%)</title>
      </path>
      <path d="M183.7713370483994,-127.20198771813114A223.5,223.5,0,0,1,215.59605255651817,-58.911731616436604L175.17179270217102,-47.865781938354736A181.59375,181.59375,0,0,0,149.31421135182453,-103.35161502098155Z" style="fill: rgb(241, 255, 0); opacity: 0.4;">
        <title>http » http_request_duration_microseconds_sum » handler (5%)</title>
      </path>
      <path d="M215.59605255651817,-58.911731616436604A223.5,223.5,0,0,1,216.56280465603444,-55.252164116098335L175.957278783028,-44.8923833443299A181.59375,181.59375,0,0,0,175.17179270217102,-47.865781938354736Z" style="fill: rgb(255, 204, 0); opacity: 0.4;">
        <title>http » http_request_duration_microseconds_sum » instance (0%)</title>
      </path>
      <path d="M216.56280465603444,-55.252164116098335A223.5,223.5,0,0,1,217.46744334100197,-51.5767494781137L176.6922977145641,-41.90610895096738A181.59375,181.59375,0,0,0,175.957278783028,-44.8923833443299Z" style="fill: rgb(255, 180, 0); opacity: 0.4;">
        <title>http » http_request_duration_microseconds_sum » job (0%)</title>
      </path>
      <path d="M217.46744334100197,-51.57674947811365A223.5,223.5,0,0,1,222.2491248614299,23.613057792851677L180.57741394991177,19.18560945669199A181.59375,181.59375,0,0,0,176.6922977145641,-41.90610895096734Z" style="fill: rgb(255, 166, 0); opacity: 0.4;">
        <title>http » http_request_size_bytes » handler (5%)</title>
      </path>
      <path d="M222.2491248614299,23.613057792851677A223.5,223.5,0,0,1,221.81736556309514,27.37346040690154L180.22660952001482,22.2409365806075A181.59375,181.59375,0,0,0,180.57741394991177,19.18560945669199Z" style="fill: rgb(255, 155, 0); opacity: 0.4;">
        <title>http » http_request_size_bytes » instance (0%)</title>
      </path>
      <path d="M221.81736556309514,27.37346040690154A223.5,223.5,0,0,1,221.32198576444773,31.12601190775309L179.8241134336138,25.289884675049382A181.59375,181.59375,0,0,0,180.22660952001482,22.2409365806075Z" style="fill: rgb(255, 211, 0); opacity: 0.4;">
        <title>http » http_request_size_bytes » job (0%)</title>
      </path>
      <path d="M221.32198576444773,31.12601190775309A223.5,223.5,0,0,1,219.45563517591182,42.325809969061375L178.30770358042835,34.389720599862365A181.59375,181.59375,0,0,0,179.8241134336138,25.289884675049382Z" style="fill: rgb(235, 255, 0); opacity: 0.4;">
        <title>http » http_request_size_bytes » quantile (1%)</title>
      </path>
      <path d="M219.45563517591182,42.325809969061424A223.5,223.5,0,0,1,192.92273796690287,112.84089318750416L156.7497245981086,91.68322571484714A181.59375,181.59375,0,0,0,178.30770358042835,34.38972059986241Z" style="fill: rgb(255, 115, 0); opacity: 0.4;">
        <title>http » http_request_size_bytes_sum » handler (5%)</title>
      </path>
      <path d="M192.92273796690287,112.84089318750416A223.5,223.5,0,0,1,190.98411090826372,116.09185751197205L155.17459011296427,94.3246342284773A181.59375,181.59375,0,0,0,156.7497245981086,91.68322571484714Z" style="fill: rgb(255, 187, 0); opacity: 0.4;">
        <title>http » http_request_size_bytes_sum » instance (0%)</title>
      </path>
      <path d="M190.98411090826372,116.09185751197205A223.5,223.5,0,0,1,188.99070678265812,119.30952497513073L153.55494926090972,96.93898904229371A181.59375,181.59375,0,0,0,155.17459011296427,94.3246342284773Z" style="fill: rgb(255, 235, 0); opacity: 0.4;">
        <title>http » http_request_size_bytes_sum » job (0%)</title>
      </path>
      <path d="M188.99070678265812,119.30952497513073A223.5,223.5,0,0,1,138.60888588333998,175.3277694895456L112.61971978021374,142.45381271025582A181.59375,181.59375,0,0,0,153.55494926090972,96.93898904229371Z" style="fill: rgb(255, 255, 0); opacity: 0.4;">
        <title>http » http_response_size_bytes_count » handler (5%)</title>
      </path>
      <path d="M138.60888588333998,175.3277694895456A223.5,223.5,0,0,1,135.6198325904556,177.64996765588447L110.19111397974515,144.34059872040615A181.59375,181.59375,0,0,0,112.61971978021374,142.45381271025582Z" style="fill: rgb(255, 222, 0); opacity: 0.4;">
        <title>http » http_response_size_bytes_count » instance (0%)</title>
      </path>
      <path d="M135.6198325904556,177.64996765588447A223.5,223.5,0,0,1,132.59188152426185,179.92121318470512L107.73090373846274,146.18598571257291A181.59375,181.59375,0,0,0,110.19111397974515,144.34059872040615Z" style="fill: rgb(231, 255, 0); opacity: 0.4;">
        <title>http » http_response_size_bytes_count » job (0%)</title>
      </path>
      <path d="M132.59188152426185,179.92121318470512A223.5,223.5,0,0,1,65.27468823736392,213.7556199858028L53.03568419285818,173.67644123846478A181.59375,181.59375,0,0,0,107.73090373846274,146.18598571257291Z" style="fill: rgb(255, 142, 0); opacity: 0.4;">
        <title>http » http_request_duration_microseconds_count » handler (5%)</title>
      </path>
      <path d="M65.27468823736392,213.7556199858028A223.5,223.5,0,0,1,61.645375967353566,214.83039268651825L50.08686797347477,174.54969405779607A181.59375,181.59375,0,0,0,53.03568419285818,173.67644123846478Z" style="fill: rgb(255, 186, 0); opacity: 0.4;">
        <title>http » http_request_duration_microseconds_count » instance (0%)</title>
      </path>
      <path d="M61.645375967353566,214.83039268651825A223.5,223.5,0,0,1,57.99838289200558,215.8435488540538L47.123686099754536,175.3728834439187A181.59375,181.59375,0,0,0,50.08686797347477,174.54969405779607Z" style="fill: rgb(255, 233, 0); opacity: 0.4;">
        <title>http » http_request_duration_microseconds_count » job (0%)</title>
      </path>
      <path d="M57.99838289200558,215.8435488540538A223.5,223.5,0,0,1,-17.01670662465783,222.85125464230694L-13.826074132534485,181.06664439687438A181.59375,181.59375,0,0,0,47.123686099754536,175.3728834439187Z" style="fill: rgb(255, 125, 0); opacity: 0.4;">
        <title>http » http_request_size_bytes_count » handler (5%)</title>
      </path>
      <path d="M-17.01670662465783,222.85125464230694A223.5,223.5,0,0,1,-20.788252271995354,222.53111820029997L-16.890454970996224,180.80653353774372A181.59375,181.59375,0,0,0,-13.826074132534485,181.06664439687438Z" style="fill: rgb(255, 175, 0); opacity: 0.4;">
        <title>http » http_request_size_bytes_count » instance (0%)</title>
      </path>
      <path d="M-20.788252271995354,222.53111820029997A223.5,223.5,0,0,1,-24.553835541199,222.14715654317015L-19.949991377224187,180.49456469132576A181.59375,181.59375,0,0,0,-16.890454970996224,180.80653353774372Z" style="fill: rgb(247, 255, 0); opacity: 0.4;">
        <title>http » http_request_size_bytes_count » job (0%)</title>
      </path>
      <path d="M-24.553835541198804,222.14715654317018A223.5,223.5,0,0,1,-96.97301569277448,201.36654197619055L-78.79057525037928,163.61031535565482A181.59375,181.59375,0,0,0,-19.949991377224027,180.4945646913258Z" style="fill: rgb(255, 219, 0); opacity: 0.4;">
        <title>http » http_response_size_bytes_sum » handler (5%)</title>
      </path>
      <path d="M-96.97301569277448,201.36654197619055A223.5,223.5,0,0,1,-100.36925140800689,199.69542651697435L-81.55001676900561,162.25253404504167A181.59375,181.59375,0,0,0,-78.79057525037928,163.61031535565482Z" style="fill: rgb(255, 210, 0); opacity: 0.4;">
        <title>http » http_response_size_bytes_sum » instance (0%)</title>
      </path>
      <path d="M-100.36925140800689,199.69542651697435A223.5,223.5,0,0,1,-103.7366997378407,197.96703545666657L-84.28606853699556,160.8482163085416A181.59375,181.59375,0,0,0,-81.55001676900561,162.25253404504167Z" style="fill: rgb(255, 114, 0); opacity: 0.4;">
        <title>http » http_response_size_bytes_sum » job (0%)</title>
      </path>
      <path d="M-103.73669973784052,197.96703545666668A223.5,223.5,0,0,1,-107.07439484830235,196.18186452338006L-86.99794581424565,159.3977649252463A181.59375,181.59375,0,0,0,-84.28606853699542,160.84821630854168Z" style="fill: rgb(255, 255, 0); opacity: 0.4;">
        <title>http » http_requests_total » code (0%)</title>
      </path>
      <path d="M-107.07439484830235,196.18186452338006A223.5,223.5,0,0,1,-129.52590114589728,182.14085464920615L-105.23979468104154,147.98944440248A181.59375,181.59375,0,0,0,-86.99794581424565,159.3977649252463Z" style="fill: rgb(255, 128, 0); opacity: 0.4;">
        <title>http » http_requests_total » handler (2%)</title>
      </path>
      <path d="M-129.52590114589728,182.14085464920615A223.5,223.5,0,0,1,-132.59188152426213,179.9212131847049L-107.73090373846298,146.18598571257274A181.59375,181.59375,0,0,0,-105.23979468104154,147.98944440248Z" style="fill: rgb(255, 255, 0); opacity: 0.4;">
        <title>http » http_requests_total » instance (0%)</title>
      </path>
      <path d="M-132.59188152426213,179.9212131847049A223.5,223.5,0,0,1,-135.61983259045596,177.6499676558842L-110.19111397974547,144.34059872040592A181.59375,181.59375,0,0,0,-107.73090373846298,146.18598571257274Z" style="fill: rgb(255, 166, 0); opacity: 0.4;">
        <title>http » http_requests_total » job (0%)</title>
      </path>
      <path d="M-135.61983259045596,177.6499676558842A223.5,223.5,0,0,1,-138.6088858833405,175.32776948954518L-112.61971978021415,142.45381271025548A181.59375,181.59375,0,0,0,-110.19111397974547,144.34059872040592Z" style="fill: rgb(255, 255, 0); opacity: 0.4;">
        <title>http » http_requests_total » method (0%)</title>
      </path>
      <path d="M-138.60888588334012,175.3277694895455A223.5,223.5,0,0,1,-141.55818409823374,172.95528472645915L-115.01602457981492,140.52616884024806A181.59375,181.59375,0,0,0,-112.61971978021384,142.4538127102557Z" style="fill: rgb(0, 158, 73); opacity: 0.4;">
        <title>prometheus » prometheus_engine_query_duration_seconds » instance (0%)</title>
      </path>
      <path d="M-141.55818409823374,172.95528472645915A223.5,223.5,0,0,1,-144.46688133279923,170.53319383033588L-117.37934108289939,138.5582199871479A181.59375,181.59375,0,0,0,-115.01602457981492,140.52616884024806Z" style="fill: rgb(0, 158, 33); opacity: 0.4;">
        <title>prometheus » prometheus_engine_query_duration_seconds » job (0%)</title>
      </path>
      <path d="M-144.46688133279923,170.53319383033588A223.5,223.5,0,0,1,-152.9410842378302,162.97630119792547L-124.26463094323705,132.41824472331444A181.59375,181.59375,0,0,0,-117.37934108289939,138.5582199871479Z" style="fill: rgb(0, 158, 9); opacity: 0.4;">
        <title>prometheus » prometheus_engine_query_duration_seconds » quantile (1%)</title>
      </path>
      <path d="M-152.9410842378302,162.97630119792547A223.5,223.5,0,0,1,-163.62238374515937,152.24968156798164L-132.943186792942,123.70286627398507A181.59375,181.59375,0,0,0,-124.26463094323705,132.41824472331444Z" style="fill: rgb(0, 158, 4); opacity: 0.4;">
        <title>prometheus » prometheus_engine_query_duration_seconds » slice (1%)</title>
      </path>
      <path d="M-163.6223837451593,152.2496815679817A223.5,223.5,0,0,1,-166.17726742352934,149.45690279023185L-135.0190297816176,121.43373351706337A181.59375,181.59375,0,0,0,-132.94318679294193,123.70286627398514Z" style="fill: rgb(0, 158, 76); opacity: 0.4;">
        <title>prometheus » prometheus_engine_query_duration_seconds_sum » instance (0%)</title>
      </path>
      <path d="M-166.17726742352934,149.45690279023185A223.5,223.5,0,0,1,-168.68448900444702,146.6212575628398L-137.0561473161132,119.12977176980732A181.59375,181.59375,0,0,0,-135.0190297816176,121.43373351706337Z" style="fill: rgb(0, 158, 6); opacity: 0.4;">
        <title>prometheus » prometheus_engine_query_duration_seconds_sum » job (0%)</title>
      </path>
      <path d="M-168.68448900444702,146.6212575628398A223.5,223.5,0,0,1,-178.22258154541848,134.86645775464947L-144.80584750565254,109.57899692565269A181.59375,181.59375,0,0,0,-137.0561473161132,119.12977176980732Z" style="fill: rgb(0, 158, 96); opacity: 0.4;">
        <title>prometheus » prometheus_engine_query_duration_seconds_sum » slice (1%)</title>
      </path>
      <path d="M-178.22258154541848,134.86645775464947A223.5,223.5,0,0,1,-180.4809865544259,131.82891751183098L-146.64080157547104,107.11099547836268A181.59375,181.59375,0,0,0,-144.80584750565254,109.57899692565269Z" style="fill: rgb(0, 158, 73); opacity: 0.4;">
        <title>prometheus » prometheus_evaluator_duration_seconds » instance (0%)</title>
      </path>
      <path d="M-180.4809865544259,131.82891751183098A223.5,223.5,0,0,1,-182.68762694783456,128.75356678620142L-148.4336968951156,104.61227301378867A181.59375,181.59375,0,0,0,-146.64080157547104,107.11099547836268Z" style="fill: rgb(0, 158, 29); opacity: 0.4;">
        <title>prometheus » prometheus_evaluator_duration_seconds » job (0%)</title>
      </path>
      <path d="M-182.68762694783456,128.75356678620142A223.5,223.5,0,0,1,-192.92273796690293,112.84089318750412L-156.74972459810863,91.6832257148471A181.59375,181.59375,0,0,0,-148.4336968951156,104.61227301378867Z" style="fill: rgb(0, 158, 24); opacity: 0.4;">
        <title>prometheus » prometheus_evaluator_duration_seconds » quantile (1%)</title>
      </path>
      <path d="M-192.92273796690293,112.84089318750412A223.5,223.5,0,0,1,-194.80603193167002,109.55756442636522L-158.27990094448188,89.01552109642174A181.59375,181.59375,0,0,0,-156.74972459810863,91.6832257148471Z" style="fill: rgb(0, 158, 98); opacity: 0.4;">
        <title>prometheus » prometheus_engine_query_duration_seconds_count » instance (0%)</title>
      </path>
      <path d="M-194.80603193167002,109.55756442636522A223.5,223.5,0,0,1,-196.633452646009,106.24281293579217L-159.76468027488232,86.32228551033114A181.59375,181.59375,0,0,0,-158.27990094448188,89.01552109642174Z" style="fill: rgb(0, 158, 54); opacity: 0.4;">
        <title>prometheus » prometheus_engine_query_duration_seconds_count » job (0%)</title>
      </path>
      <path d="M-196.633452646009,106.24281293579217A223.5,223.5,0,0,1,-203.37416387694697,92.68872351776521L-165.24150815001943,75.30958785818423A181.59375,181.59375,0,0,0,-159.76468027488232,86.32228551033114Z" style="fill: rgb(0, 158, 98); opacity: 0.4;">
        <title>prometheus » prometheus_engine_query_duration_seconds_count » slice (1%)</title>
      </path>
      <path d="M-203.37416387694705,92.68872351776503A223.5,223.5,0,0,1,-204.91468203918902,89.23128983029477L-166.49317915684108,72.5004229871145A181.59375,181.59375,0,0,0,-165.24150815001948,75.30958785818407Z" style="fill: rgb(0, 158, 64); opacity: 0.4;">
        <title>prometheus » prometheus_local_storage_chunk_ops_total » instance (0%)</title>
      </path>
      <path d="M-204.91468203918902,89.23128983029477A223.5,223.5,0,0,1,-206.39642764068194,85.74826328949611L-167.69709745805406,69.67046392271558A181.59375,181.59375,0,0,0,-166.49317915684108,72.5004229871145Z" style="fill: rgb(0, 158, 31); opacity: 0.4;">
        <title>prometheus » prometheus_local_storage_chunk_ops_total » job (0%)</title>
      </path>
      <path d="M-206.39642764068194,85.74826328949611A223.5,223.5,0,0,1,-215.0894699321678,60.73524449855371L-174.76019431988632,49.34738615507489A181.59375,181.59375,0,0,0,-167.69709745805406,69.67046392271558Z" style="fill: rgb(0, 158, 92); opacity: 0.4;">
        <title>prometheus » prometheus_local_storage_chunk_ops_total » type (2%)</title>
      </path>
      <path d="M-215.08946993216773,60.7352444985539A223.5,223.5,0,0,1,-216.08717586980316,57.08399446966516L-175.57083039421508,46.38074550660294A181.59375,181.59375,0,0,0,-174.76019431988627,49.34738615507504Z" style="fill: rgb(0, 158, 23); opacity: 0.4;">
        <title>prometheus » prometheus_local_storage_indexing_batch_sizes » instance (0%)</title>
      </path>
      <path d="M-216.08717586980316,57.08399446966516A223.5,223.5,0,0,1,-217.02290481025847,53.416371907098785L-176.331110158335,43.400802174517764A181.59375,181.59375,0,0,0,-175.57083039421508,46.38074550660294Z" style="fill: rgb(0, 158, 39); opacity: 0.4;">
        <title>prometheus » prometheus_local_storage_indexing_batch_sizes » job (0%)</title>
      </path>
      <path d="M-217.02290481025847,53.416371907098785A223.5,223.5,0,0,1,-219.45563517591182,42.325809969061446L-178.30770358042835,34.38972059986243A181.59375,181.59375,0,0,0,-176.331110158335,43.400802174517764Z" style="fill: rgb(0, 158, 102); opacity: 0.4;">
        <title>prometheus » prometheus_local_storage_indexing_batch_sizes » quantile (1%)</title>
      </path>
      <path d="M-219.45563517591177,42.325809969061645A223.5,223.5,0,0,1,-220.14095120176816,38.603258981344226L-178.86452285143662,31.36514792234218A181.59375,181.59375,0,0,0,-178.3077035804283,34.389720599862585Z" style="fill: rgb(0, 158, 69); opacity: 0.4;">
        <title>prometheus » prometheus_local_storage_indexing_batch_duration_seconds » instance (0%)</title>
      </path>
      <path d="M-220.14095120176816,38.603258981344226A223.5,223.5,0,0,1,-220.76312754773875,34.86963600814946L-179.37004113253772,28.33157925662144A181.59375,181.59375,0,0,0,-178.86452285143662,31.36514792234218Z" style="fill: rgb(0, 158, 13); opacity: 0.4;">
        <title>prometheus » prometheus_local_storage_indexing_batch_duration_seconds » job (0%)</title>
      </path>
      <path d="M-220.76312754773875,34.86963600814946A223.5,223.5,0,0,1,-222.2491248614299,23.613057792851656L-180.57741394991177,19.18560945669197A181.59375,181.59375,0,0,0,-179.37004113253772,28.33157925662144Z" style="fill: rgb(0, 158, 68); opacity: 0.4;">
        <title>prometheus » prometheus_local_storage_indexing_batch_duration_seconds » quantile (1%)</title>
      </path>
      <path d="M-222.24912486142986,23.61305779285185A223.5,223.5,0,0,1,-222.61713982450098,19.845882604676063L-180.87642610740704,16.1247796162993A181.59375,181.59375,0,0,0,-180.57741394991177,19.185609456692127Z" style="fill: rgb(0, 158, 97); opacity: 0.4;">
        <title>prometheus » prometheus_local_storage_maintain_series_duration_seconds » instance (0%)</title>
      </path>
      <path d="M-222.61713982450098,19.845882604676063A223.5,223.5,0,0,1,-222.92130490017547,16.073015323921087L-181.1235602313926,13.059324950685882A181.59375,181.59375,0,0,0,-180.87642610740704,16.1247796162993Z" style="fill: rgb(0, 158, 75); opacity: 0.4;">
        <title>prometheus » prometheus_local_storage_maintain_series_duration_seconds » job (0%)</title>
      </path>
      <path d="M-222.92130490017547,16.073015323921087A223.5,223.5,0,0,1,-223.33775477128313,8.514534263375783L-181.46192575166754,6.918059088992824A181.59375,181.59375,0,0,0,-181.1235602313926,13.059324950685882Z" style="fill: rgb(0, 158, 72); opacity: 0.4;">
        <title>prometheus » prometheus_local_storage_maintain_series_duration_seconds » location (1%)</title>
      </path>
      <path d="M-223.33775477128313,8.514534263375783A223.5,223.5,0,0,1,-223.48197081325765,-2.8387887244833925L-181.57910128577183,-2.306515838642756A181.59375,181.59375,0,0,0,-181.46192575166754,6.918059088992824Z" style="fill: rgb(0, 158, 86); opacity: 0.4;">
        <title>prometheus » prometheus_local_storage_maintain_series_duration_seconds » quantile (1%)</title>
      </path>
      <path d="M-223.48197081325765,-2.838788724483194A223.5,223.5,0,0,1,-223.40184695971553,-6.623048768342045L-181.51400065476886,-5.3812271242779115A181.59375,181.59375,0,0,0,-181.57910128577183,-2.306515838642595Z" style="fill: rgb(0, 158, 68); opacity: 0.4;">
        <title>prometheus » prometheus_local_storage_series_chunks_persisted_bucket » instance (0%)</title>
      </path>
      <path d="M-223.40184695971553,-6.623048768342045A223.5,223.5,0,0,1,-223.25764815316748,-10.405409223883218L-181.39683912444858,-8.454394994405115A181.59375,181.59375,0,0,0,-181.51400065476886,-5.3812271242779115Z" style="fill: rgb(0, 158, 85); opacity: 0.4;">
        <title>prometheus » prometheus_local_storage_series_chunks_persisted_bucket » job (0%)</title>
      </path>
      <path d="M-223.25764815316748,-10.405409223883218A223.5,223.5,0,0,1,-219.08936050174984,-44.182599685105636L-178.01010540767174,-35.89836224414833A181.59375,181.59375,0,0,0,-181.39683912444858,-8.454394994405115Z" style="fill: rgb(0, 158, 29); opacity: 0.4;">
        <title>prometheus » prometheus_local_storage_series_chunks_persisted_bucket » le (2%)</title>
      </path>
      <path d="M-219.08936050174984,-44.182599685105636A223.5,223.5,0,0,1,-218.30970914766957,-47.886541865746736L-177.37663868248154,-38.907815265919226A181.59375,181.59375,0,0,0,-178.01010540767174,-35.89836224414833Z" style="fill: rgb(0, 158, 76); opacity: 0.4;">
        <title>prometheus » prometheus_local_storage_series_ops_total » instance (0%)</title>
      </path>
      <path d="M-218.30970914766957,-47.886541865746736A223.5,223.5,0,0,1,-217.467443341002,-51.57674947811358L-176.69229771456412,-41.90610895096728A181.59375,181.59375,0,0,0,-177.37663868248154,-38.907815265919226Z" style="fill: rgb(0, 158, 28); opacity: 0.4;">
        <title>prometheus » prometheus_local_storage_series_ops_total » job (0%)</title>
      </path>
      <path d="M-217.467443341002,-51.57674947811358A223.5,223.5,0,0,1,-204.15174230657067,-90.96326793377398L-165.87329062408867,-73.90765519619136A181.59375,181.59375,0,0,0,-176.69229771456412,-41.90610895096728Z" style="fill: rgb(0, 158, 92); opacity: 0.4;">
        <title>prometheus » prometheus_local_storage_series_ops_total » type (3%)</title>
      </path>
      <path d="M-204.15174230657078,-90.96326793377379A223.5,223.5,0,0,1,-202.58200250656594,-94.40753285850504L-164.59787703658483,-76.70612044753534A181.59375,181.59375,0,0,0,-165.87329062408875,-73.90765519619121Z" style="fill: rgb(0, 158, 1); opacity: 0.4;">
        <title>prometheus » prometheus_sd_azure_refresh_duration_seconds » instance (0%)</title>
      </path>
      <path d="M-202.58200250656594,-94.40753285850504A223.5,223.5,0,0,1,-200.95415919279392,-97.82472030686945L-163.27525434414505,-79.48258524933142A181.59375,181.59375,0,0,0,-164.59787703658483,-76.70612044753534Z" style="fill: rgb(0, 158, 0); opacity: 0.4;">
        <title>prometheus » prometheus_sd_azure_refresh_duration_seconds » job (0%)</title>
      </path>
      <path d="M-200.95415919279392,-97.82472030686945A223.5,223.5,0,0,1,-195.7267595807249,-107.90405731032135L-159.02799215933896,-87.6720465646361A181.59375,181.59375,0,0,0,-163.27525434414505,-79.48258524933142Z" style="fill: rgb(0, 158, 0); opacity: 0.4;">
        <title>prometheus » prometheus_sd_azure_refresh_duration_seconds » quantile (1%)</title>
      </path>
      <path d="M-195.72675958072497,-107.90405731032118A223.5,223.5,0,0,1,-193.87133571960453,-111.20321571922456L-157.5204602721787,-90.35261277186996A181.59375,181.59375,0,0,0,-159.02799215933905,-87.67204656463596Z" style="fill: rgb(0, 158, 104); opacity: 0.4;">
        <title>prometheus » prometheus_sd_ec2_refresh_duration_seconds » instance (0%)</title>
      </path>
      <path d="M-193.87133571960453,-111.20321571922456A223.5,223.5,0,0,1,-191.96030669275035,-114.47047940156982L-155.96774918785965,-93.00726451377548A181.59375,181.59375,0,0,0,-157.5204602721787,-90.35261277186996Z" style="fill: rgb(0, 158, 31); opacity: 0.4;">
        <title>prometheus » prometheus_sd_ec2_refresh_duration_seconds » job (0%)</title>
      </path>
      <path d="M-191.96030669275035,-114.47047940156982A223.5,223.5,0,0,1,-185.8991485257563,-124.07157844324703L-151.043058177177,-100.80815748513821A181.59375,181.59375,0,0,0,-155.96774918785965,-93.00726451377548Z" style="fill: rgb(0, 158, 15); opacity: 0.4;">
        <title>prometheus » prometheus_sd_ec2_refresh_duration_seconds » quantile (1%)</title>
      </path>
      <path d="M-185.8991485257564,-124.07157844324689A223.5,223.5,0,0,1,-181.59081723426993,-130.2959135820843L-147.5425390028443,-105.8654297854435A181.59375,181.59375,0,0,0,-151.04305817717707,-100.8081574851381Z" style="fill: rgb(0, 158, 42); opacity: 0.4;">
        <title>prometheus » prometheus_sd_consul_rpc_duration_seconds » call (1%)</title>
      </path>
      <path d="M-181.59081723426993,-130.2959135820843A223.5,223.5,0,0,1,-179.35821448869214,-133.35246865142133L-145.72854927206237,-108.34888077927984A181.59375,181.59375,0,0,0,-147.5425390028443,-105.8654297854435Z" style="fill: rgb(0, 158, 1); opacity: 0.4;">
        <title>prometheus » prometheus_sd_consul_rpc_duration_seconds » endpoint (0%)</title>
      </path>
      <path d="M-179.35821448869214,-133.35246865142133A223.5,223.5,0,0,1,-177.07416915514563,-136.37077626095288L-143.8727624385558,-110.80125571202421A181.59375,181.59375,0,0,0,-145.72854927206237,-108.34888077927984Z" style="fill: rgb(0, 158, 25); opacity: 0.4;">
        <title>prometheus » prometheus_sd_consul_rpc_duration_seconds » instance (0%)</title>
      </path>
      <path d="M-177.07416915514563,-136.37077626095288A223.5,223.5,0,0,1,-174.73933633160468,-139.3499707154269L-141.97571076942882,-113.22185120628437A181.59375,181.59375,0,0,0,-143.8727624385558,-110.80125571202421Z" style="fill: rgb(0, 158, 7); opacity: 0.4;">
        <title>prometheus » prometheus_sd_consul_rpc_duration_seconds » job (0%)</title>
      </path>
      <path d="M-174.73933633160468,-139.3499707154269A223.5,223.5,0,0,1,-167.43688124326508,-148.04438793662106L-136.04246601015288,-120.28606519850462A181.59375,181.59375,0,0,0,-141.97571076942882,-113.22185120628437Z" style="fill: rgb(0, 158, 59); opacity: 0.4;">
        <title>prometheus » prometheus_sd_consul_rpc_duration_seconds » quantile (1%)</title>
      </path>
      <path d="M-167.4368812432652,-148.04438793662092A223.5,223.5,0,0,1,-164.90573786582615,-150.8587008393199L-133.98591201598376,-122.57269443194743A181.59375,181.59375,0,0,0,-136.04246601015296,-120.28606519850449Z" style="fill: rgb(0, 158, 65); opacity: 0.4;">
        <title>prometheus » prometheus_sd_file_scan_duration_seconds » instance (0%)</title>
      </path>
      <path d="M-164.90573786582615,-150.8587008393199A223.5,223.5,0,0,1,-162.3272970844133,-153.62974523596864L-131.89092888108578,-124.82416800422452A181.59375,181.59375,0,0,0,-133.98591201598376,-122.57269443194743Z" style="fill: rgb(0, 158, 14); opacity: 0.4;">
        <title>prometheus » prometheus_sd_file_scan_duration_seconds » job (0%)</title>
      </path>
      <path d="M-162.3272970844133,-153.62974523596864A223.5,223.5,0,0,1,-154.31565221723633,-161.67538303888125L-125.38146742650451,-131.361248719091A181.59375,181.59375,0,0,0,-131.89092888108578,-124.82416800422452Z" style="fill: rgb(0, 158, 3); opacity: 0.4;">
        <title>prometheus » prometheus_sd_file_scan_duration_seconds » quantile (1%)</title>
      </path>
      <path d="M-154.31565221723648,-161.6753830388811A223.5,223.5,0,0,1,-151.55554962073333,-164.26553314422793L-123.13888406684583,-133.46574567968517A181.59375,181.59375,0,0,0,-125.38146742650464,-131.3612487190909Z" style="fill: rgb(0, 158, 71); opacity: 0.4;">
        <title>prometheus » prometheus_sd_gce_refresh_duration » instance (0%)</title>
      </path>
      <path d="M-151.55554962073333,-164.26553314422793A223.5,223.5,0,0,1,-148.75197865164557,-166.80856946578132L-120.86098265446202,-135.53196269094732A181.59375,181.59375,0,0,0,-123.13888406684583,-133.46574567968517Z" style="fill: rgb(0, 158, 75); opacity: 0.4;">
        <title>prometheus » prometheus_sd_gce_refresh_duration » job (0%)</title>
      </path>
      <path d="M-148.75197865164557,-166.80856946578132A223.5,223.5,0,0,1,-140.08855751453368,-174.1477707393844L-113.8219529805586,-141.49506372574982A181.59375,181.59375,0,0,0,-120.86098265446202,-135.53196269094732Z" style="fill: rgb(0, 158, 80); opacity: 0.4;">
        <title>prometheus » prometheus_sd_gce_refresh_duration » quantile (1%)</title>
      </path>
      <path d="M-140.08855751453368,-174.1477707393844A223.5,223.5,0,0,1,-131.06359029127012,-181.0375245631747L-106.48916711165695,-147.09298870757945A181.59375,181.59375,0,0,0,-113.8219529805586,-141.49506372574982Z" style="fill: rgb(0, 158, 0); opacity: 0.4;">
        <title>prometheus » prometheus_sd_kubernetes_events_total » event (1%)</title>
      </path>
      <path d="M-131.06359029127012,-181.0375245631747A223.5,223.5,0,0,1,-127.97892434811534,-183.23112432853588L-103.9828760328437,-148.8752885169354A181.59375,181.59375,0,0,0,-106.48916711165695,-147.09298870757945Z" style="fill: rgb(0, 158, 0); opacity: 0.4;">
        <title>prometheus » prometheus_sd_kubernetes_events_total » instance (0%)</title>
      </path>
      <path d="M-127.97892434811534,-183.23112432853588A223.5,223.5,0,0,1,-124.85755215711634,-185.3721706981201L-101.44676112765704,-150.61488869222256A181.59375,181.59375,0,0,0,-103.9828760328437,-148.8752885169354Z" style="fill: rgb(0, 158, 58); opacity: 0.4;">
        <title>prometheus » prometheus_sd_kubernetes_events_total » job (0%)</title>
      </path>
      <path d="M-124.85755215711634,-185.3721706981201A223.5,223.5,0,0,1,-112.02305853428857,-193.39877030794005L-91.01873505910946,-157.1365008752013A181.59375,181.59375,0,0,0,-101.44676112765704,-150.61488869222256Z" style="fill: rgb(0, 158, 88); opacity: 0.4;">
        <title>prometheus » prometheus_sd_kubernetes_events_total » role (1%)</title>
      </path>
      <path d="M-112.02305853428874,-193.39877030793997A223.5,223.5,0,0,1,-108.73178544905072,-195.26814597640242L-88.34457567735372,-158.65536860582696A181.59375,181.59375,0,0,0,-91.0187350591096,-157.13650087520122Z" style="fill: rgb(0, 158, 81); opacity: 0.4;">
        <title>prometheus » prometheus_sd_marathon_refresh_duration_seconds » instance (0%)</title>
      </path>
      <path d="M-108.73178544905072,-195.26814597640242A223.5,223.5,0,0,1,-105.40932647999969,-197.08151585329566L-85.64507776499974,-160.12873163080272A181.59375,181.59375,0,0,0,-88.34457567735372,-158.65536860582696Z" style="fill: rgb(0, 158, 26); opacity: 0.4;">
        <title>prometheus » prometheus_sd_marathon_refresh_duration_seconds » job (0%)</title>
      </path>
      <path d="M-105.40932647999969,-197.08151585329566A223.5,223.5,0,0,1,-95.26440665405099,-202.1804709284544L-77.40233040641643,-164.2716326293692A181.59375,181.59375,0,0,0,-85.64507776499974,-160.12873163080272Z" style="fill: rgb(0, 158, 15); opacity: 0.4;">
        <title>prometheus » prometheus_sd_marathon_refresh_duration_seconds » quantile (1%)</title>
      </path>
      <path d="M-95.26440665405099,-202.1804709284544A223.5,223.5,0,0,1,-91.82681878450661,-203.76477946867408L-74.60929026241163,-165.5588833182977A181.59375,181.59375,0,0,0,-77.40233040641643,-164.2716326293692Z" style="fill: rgb(0, 158, 13); opacity: 0.4;">
        <title>prometheus » prometheus_sd_openstack_refresh_duration_seconds » instance (0%)</title>
      </path>
      <path d="M-91.82681878450661,-203.76477946867408A223.5,223.5,0,0,1,-88.36289362555137,-205.29064525720477L-71.79485107076049,-166.79864927147887A181.59375,181.59375,0,0,0,-74.60929026241163,-165.5588833182977Z" style="fill: rgb(0, 158, 25); opacity: 0.4;">
        <title>prometheus » prometheus_sd_openstack_refresh_duration_seconds » job (0%)</title>
      </path>
      <path d="M-88.36289362555137,-205.29064525720477A223.5,223.5,0,0,1,-77.8230655195882,-209.51329426347598L-63.231240734665406,-170.22955158907425A181.59375,181.59375,0,0,0,-71.79485107076049,-166.79864927147887Z" style="fill: rgb(0, 158, 1); opacity: 0.4;">
        <title>prometheus » prometheus_sd_openstack_refresh_duration_seconds » quantile (1%)</title>
      </path>
      <path d="M-77.82306551958838,-209.51329426347593A223.5,223.5,0,0,1,-74.26379750506834,-210.80118211273438L-60.33933547286803,-171.27596046659667A181.59375,181.59375,0,0,0,-63.23124073466556,-170.2295515890742Z" style="fill: rgb(0, 158, 0); opacity: 0.4;">
        <title>prometheus » prometheus_sd_triton_refresh_duration_seconds » instance (0%)</title>
      </path>
      <path d="M-74.26379750506834,-210.80118211273438A223.5,223.5,0,0,1,-70.68322953533354,-212.02860906598278L-57.430123997458495,-172.273244866111A181.59375,181.59375,0,0,0,-60.33933547286803,-171.27596046659667Z" style="fill: rgb(0, 158, 70); opacity: 0.4;">
        <title>prometheus » prometheus_sd_triton_refresh_duration_seconds » job (0%)</title>
      </path>
      <path d="M-70.68322953533354,-212.02860906598278A223.5,223.5,0,0,1,-59.82402426997108,-215.34469141389556L-48.607019719351506,-174.96756177379015A181.59375,181.59375,0,0,0,-57.430123997458495,-172.273244866111Z" style="fill: rgb(0, 158, 37); opacity: 0.4;">
        <title>prometheus » prometheus_sd_triton_refresh_duration_seconds » quantile (1%)</title>
      </path>
      <path d="M-59.82402426997127,-215.3446914138955A223.5,223.5,0,0,1,-56.16858274103969,-216.32692923642904L-45.63697347709475,-175.7656300045986A181.59375,181.59375,0,0,0,-48.607019719351655,-174.9675617737901Z" style="fill: rgb(0, 158, 20); opacity: 0.4;">
        <title>prometheus » prometheus_target_interval_length_seconds » instance (0%)</title>
      </path>
      <path d="M-56.16858274103969,-216.32692923642904A223.5,223.5,0,0,1,-52.497031232049856,-217.2471212969718L-42.653837876040505,-176.51328605378959A181.59375,181.59375,0,0,0,-45.63697347709475,-175.7656300045986Z" style="fill: rgb(0, 158, 26); opacity: 0.4;">
        <title>prometheus » prometheus_target_interval_length_seconds » interval (0%)</title>
      </path>
      <path d="M-52.497031232049856,-217.2471212969718A223.5,223.5,0,0,1,-48.81042279826318,-218.10500367083463L-39.65846852358884,-177.21031548255314A181.59375,181.59375,0,0,0,-42.653837876040505,-176.51328605378959Z" style="fill: rgb(0, 158, 78); opacity: 0.4;">
        <title>prometheus » prometheus_target_interval_length_seconds » job (0%)</title>
      </path>
      <path d="M-48.81042279826318,-218.10500367083463A223.5,223.5,0,0,1,-30.188668975249048,-221.4517876773697L-24.528293542389854,-179.9295774878629A181.59375,181.59375,0,0,0,-39.65846852358884,-177.21031548255314Z" style="fill: rgb(0, 158, 1); opacity: 0.4;">
        <title>prometheus » prometheus_target_interval_length_seconds » quantile (1%)</title>
      </path>
      <path d="M-30.188668975249247,-221.4517876773697A223.5,223.5,0,0,1,-26.434053700925375,-221.93127495902104L-21.477668632001865,-180.31916090420458A181.59375,181.59375,0,0,0,-24.528293542390013,-179.92957748786287Z" style="fill: rgb(0, 158, 12); opacity: 0.4;">
        <title>prometheus » prometheus_target_sync_length_seconds » instance (0%)</title>
      </path>
      <path d="M-26.434053700925375,-221.93127495902104A223.5,223.5,0,0,1,-22.67185674913671,-222.34710906946063L-18.420883608673574,-180.65702611893676A181.59375,181.59375,0,0,0,-21.477668632001865,-180.31916090420458Z" style="fill: rgb(0, 158, 41); opacity: 0.4;">
        <title>prometheus » prometheus_target_sync_length_seconds » job (0%)</title>
      </path>
      <path d="M-22.67185674913671,-222.34710906946063A223.5,223.5,0,0,1,-3.784972471424424,-223.4679484476254L-3.0752901330323446,-181.56770811369563A181.59375,181.59375,0,0,0,-18.420883608673574,-180.65702611893676Z" style="fill: rgb(0, 158, 44); opacity: 0.4;">
        <title>prometheus » prometheus_target_sync_length_seconds » quantile (1%)</title>
      </path>
      <path d="M-3.784972471424424,-223.4679484476254A223.5,223.5,0,0,1,-4.1056283941415015e-14,-223.5L-3.33582307023997e-14,-181.59375A181.59375,181.59375,0,0,0,-3.0752901330323446,-181.56770811369563Z" style="fill: rgb(0, 158, 51); opacity: 0.4;">
        <title>prometheus » prometheus_target_sync_length_seconds » scrape_job (0%)</title>
      </path>
    </g>
    <g class="labels"></g>
    <g class="title">
      <text text-anchor="middle" style="font-family: sans-serif; font-size: 12px">Metrics Hierarchy</text>
    </g>
  </g>
</svg>
